<?xml version="1.0" encoding="utf-8"?>
<!-- Generator: Adobe Illustrator 26.0.2, SVG Export Plug-In . SVG Version: 6.00 Build 0)  -->
<svg version="1.1" id="Camada_1" xmlns="http://www.w3.org/2000/svg" xmlns:xlink="http://www.w3.org/1999/xlink" x="0px" y="0px"
	 viewBox="0 0 96 96" style="enable-background:new 0 0 96 96;" xml:space="preserve">
<style type="text/css">
	.st0{fill:url(#SVGID_1_);}
	.st1{fill:#FFFFFF;}
	.st2{fill:#E75F0D;}
	.st3{fill:url(#SVGID_00000035510660946711947270000014144135993236111540_);}
</style>
<linearGradient id="SVGID_1_" gradientUnits="userSpaceOnUse" x1="229.7262" y1="-66.9471" x2="325.7262" y2="-66.9471">
	<stop  offset="0" style="stop-color:#FFEF26"/>
	<stop  offset="5.032920e-03" style="stop-color:#FFE000"/>
	<stop  offset="0.011" style="stop-color:#FFD300"/>
	<stop  offset="0.0172" style="stop-color:#FECB00"/>
	<stop  offset="0.0238" style="stop-color:#FDC800"/>
	<stop  offset="0.4386" style="stop-color:#F18F34"/>
	<stop  offset="0.8075" style="stop-color:#E95F32"/>
	<stop  offset="1" style="stop-color:#E3312D"/>
</linearGradient>
<rect x="229.73" y="-114.95" class="st0" width="96" height="96"/>
<path class="st1" d="M309.42-48.58h-4.87c-0.81,0-1.49-0.74-1.41-1.53l4.19-39.63h-6.77c-1.18,0-2.21,0.59-2.75,1.57l-21.05,37.96
	l-12.7-36.84c-0.54-1.57-2.07-2.69-3.7-2.69h-5.38l-4.05,38.36c-0.11,1.04-0.95,1.79-2.02,1.79h-11.89l-0.57,5.44h16.39
	c1.65,0,2.96-1.15,3.13-2.76l3.82-36.06l13.29,37.49c0.28,0.78,1.04,1.33,1.84,1.33h3.34c0.58,0,1.1-0.29,1.37-0.77l21.31-37.69
	l-3.64,34.25c-0.23,2.17,1.65,4.21,3.88,4.21H309C309.08-45.64,309.23-47.11,309.42-48.58z"/>
<rect class="st2" width="96" height="96"/>
<path class="st1" d="M80.56,66.37h-4.87c-0.81,0-1.49-0.74-1.41-1.53l4.19-39.63H71.7c-1.18,0-2.21,0.59-2.75,1.57L47.89,64.74
	l-12.7-36.84c-0.54-1.57-2.07-2.69-3.7-2.69h-5.38l-4.05,38.36c-0.11,1.04-0.95,1.79-2.02,1.79H8.14l-0.57,5.44h16.39
	c1.65,0,2.96-1.15,3.13-2.76l3.82-36.06l13.29,37.49c0.28,0.78,1.04,1.33,1.84,1.33h3.34c0.58,0,1.1-0.29,1.37-0.77l21.31-37.69
	l-3.64,34.25c-0.23,2.17,1.65,4.21,3.88,4.21h7.81C80.22,69.31,80.36,67.84,80.56,66.37z"/>
<path class="st2" d="M479.57,117.6h-4.37c-0.73,0-1.34-0.67-1.26-1.37l3.76-35.54h-6.07c-1.06,0-1.98,0.53-2.47,1.41l-18.88,34.04
	L438.9,83.1c-0.49-1.41-1.86-2.41-3.32-2.41h-4.83l-3.64,34.4c-0.1,0.93-0.85,1.6-1.81,1.6h-10.66l-0.51,4.88h14.7
	c1.48,0,2.65-1.03,2.8-2.48l3.43-32.33l11.92,33.62c0.25,0.7,0.93,1.19,1.65,1.19h3c0.52,0,0.98-0.26,1.23-0.69l19.11-33.79
	l-3.26,30.71c-0.21,1.95,1.48,3.78,3.48,3.78h7.01C479.27,120.23,479.4,118.91,479.57,117.6z"/>
<linearGradient id="SVGID_00000146474847809030226180000000276800352733676200_" gradientUnits="userSpaceOnUse" x1="339.9804" y1="-9.9938" x2="567.1782" y2="-9.9938">
	<stop  offset="0" style="stop-color:#FFEF26"/>
	<stop  offset="5.032920e-03" style="stop-color:#FFE000"/>
	<stop  offset="0.011" style="stop-color:#FFD300"/>
	<stop  offset="0.0172" style="stop-color:#FECB00"/>
	<stop  offset="0.0238" style="stop-color:#FDC800"/>
	<stop  offset="0.4386" style="stop-color:#F18F34"/>
	<stop  offset="0.8075" style="stop-color:#E95F32"/>
	<stop  offset="1" style="stop-color:#E3312D"/>
</linearGradient>
<path style="fill:url(#SVGID_00000146474847809030226180000000276800352733676200_);" d="M551.12-40.79c-1.27,0-2.44,0.5-3.25,1.4
	l-20.87,23.15l-15.15-22.14c-1.02-1.49-2.71-2.41-4.44-2.41h-7.1l21.16,29.9l-23.77,26.08c-0.28,0.31-0.83,0.04-0.82-0.39
	l1.02-28.97c0.58-16.46-2.7-27.12-27.82-27.12c-21.46,0-27.28,9.44-27.73,22.28l7.1-0.87c1.02-0.13,1.8-0.88,1.9-1.9
	c0.77-8.09,5.23-12.24,18.6-12.24c12.79,0,17.46,3.92,18.61,11.37c0.49,3.18-1.6,5.92-4.73,6.29l-17.74,2.08
	c-17.75,2.06-25.84,6.78-26.24,18.04c-0.17,4.8,1.23,8.6,3.76,11.47h-9.93c-1.11,0-2.05-1.02-1.94-2.1l5.76-54.52h-9.31
	c-1.62,0-3.04,0.81-3.79,2.16l-28.96,52.22l-17.47-50.69c-0.75-2.17-2.85-3.7-5.09-3.7h-7.4l-5.58,52.77
	c-0.15,1.43-1.31,2.46-2.78,2.46h-16.36l-0.78,7.48h22.55c2.27,0,4.07-1.58,4.3-3.8l5.26-49.6l18.29,51.58
	c0.38,1.07,1.43,1.83,2.53,1.83h4.6c0.8,0,1.51-0.4,1.89-1.06l29.32-51.85l-5,47.12c-0.32,2.98,2.27,5.8,5.34,5.8h0.54h1.28h22.17
	l0-0.01l13.95,0c5.54,0,10.88-1.37,15.33-4.2c3.52-2.24,6.17-5.08,7.71-8.26l-0.1,10.38c-0.01,1.18,1.02,2.22,2.22,2.22l9.66,0.01
	c1.07,0,2.05-0.43,2.72-1.2l21.75-25.17L542.48,19c1.02,1.5,2.72,2.43,4.45,2.43h7.57l-22.56-31.6l19.95-21.77
	c0.81-0.88,1.96-1.37,3.22-1.37h11.29l0.78-7.48H551.12z M488.47-5.83c-0.48,13.68-10.6,20.7-23.04,20.7
	c-10.24,0-16.32-3.87-16.06-11.26c0.22-6.3,4.95-8.96,17.81-10.78l21.44-2.91L488.47-5.83z"/>
</svg>
